<svg version="1.1" id="Layer_1" xmlns="http://www.w3.org/2000/svg" xmlns:xlink="http://www.w3.org/1999/xlink" x="0px" y="0px"
	 width="100%" viewBox="0 0 1024 1008" enable-background="new 0 0 1024 1008" xml:space="preserve">
<path fill="#000000" opacity="1.000000" stroke="none" 
	d="
M459.888611,555.254761 
	C427.535187,538.059509 408.663239,511.305298 404.113159,475.648712 
	C396.788910,418.252869 437.014771,368.487885 491.096222,360.685913 
	C541.733582,353.380737 587.917175,380.661530 604.783997,429.229309 
	C623.763184,483.880035 594.817627,540.328247 544.379089,559.414307 
	C515.769226,570.240295 487.705170,568.781982 459.888611,555.254761 
M434.613342,451.111450 
	C457.453918,440.202240 480.315216,429.335907 503.108795,418.329346 
	C505.946655,416.958984 508.203003,417.015869 511.049652,418.395172 
	C533.527344,429.286377 556.078613,440.026001 578.641785,450.739777 
	C581.005127,451.861969 583.421814,453.933380 586.389893,451.931458 
	C586.138916,448.878876 583.623718,448.540436 581.833496,447.687439 
	C558.079163,436.369080 534.276733,425.151581 510.516785,413.844849 
	C508.256592,412.769318 506.341797,412.541687 503.945404,413.684845 
	C479.748505,425.227448 455.489594,436.639893 431.269989,448.135071 
	C429.751923,448.855560 427.606750,449.248474 427.946716,451.810394 
	C430.111725,453.730621 432.008636,452.167297 434.613342,451.111450 
M508.908539,463.500000 
	C508.910736,454.514282 508.954651,445.528198 508.879700,436.543121 
	C508.864807,434.758850 509.492279,432.423950 506.760895,431.841492 
	C504.852386,433.057587 505.200989,434.849823 505.198853,436.453827 
	C505.166870,460.249268 505.151886,484.044769 505.192932,507.840149 
	C505.195801,509.495239 504.594086,511.659058 507.417847,512.311035 
	C507.790833,511.855103 508.523163,511.377960 508.528503,510.892822 
	C508.698730,495.429047 508.798584,479.964447 508.908539,463.500000 
M470.818359,478.476196 
	C470.812927,473.327881 471.018982,468.168121 470.740479,463.034607 
	C470.479004,458.215057 472.040833,453.083954 469.197815,447.968292 
	C466.167358,452.475403 466.201263,488.128021 469.122864,491.840973 
	C472.215912,487.885315 470.221466,483.450043 470.818359,478.476196 
M543.190796,483.351685 
	C543.845642,486.050903 541.601318,489.633789 546.558655,492.104309 
	C547.177551,477.085815 547.394348,462.870667 546.376953,447.583771 
	C544.717529,448.840210 543.834045,449.170746 543.787048,449.594147 
	C542.576172,460.505005 543.520813,471.459320 543.190796,483.351685 
z"/>
<path fill="#000000" opacity="1.000000" stroke="none" 
	d="
M667.074463,530.481079 
	C664.852966,539.398865 660.261780,545.977234 651.334961,547.851013 
	C643.585571,549.477661 636.095154,548.509949 630.243347,542.124451 
	C623.622803,534.900146 622.442810,524.222229 627.465515,515.751709 
	C631.972656,508.150635 641.914978,504.187988 650.868286,506.424072 
	C660.374390,508.798218 666.823303,516.712585 667.248901,526.571533 
	C667.298889,527.730774 667.182861,528.897217 667.074463,530.481079 
z"/>
<path fill="#000000" opacity="1.000000" stroke="none" 
	d="
M346.829773,530.564575 
	C346.503235,518.910278 350.613525,511.474518 359.126617,507.777344 
	C367.467682,504.154877 376.551300,505.744507 383.140472,511.979889 
	C388.937408,517.465637 391.094269,527.416748 388.132538,535.011780 
	C384.895081,543.313843 377.779510,548.245422 368.959290,548.300110 
	C356.850922,548.375183 350.392059,543.311646 346.829773,530.564575 
z"/>
<path fill="#000000" opacity="1.000000" stroke="none" 
	d="
M450.072998,632.189697 
	C437.717590,629.653931 434.893219,614.955872 438.215912,604.767761 
	C441.143402,595.791382 449.724091,591.670105 459.536926,594.549072 
	C466.343109,596.545837 470.126862,602.719055 470.689178,612.743652 
	C471.427429,625.904541 463.415100,633.628357 450.072998,632.189697 
M452.734741,627.936218 
	C459.165710,627.709839 461.234741,626.038208 462.843811,619.955017 
	C464.338318,614.304871 463.873749,608.793274 461.775452,603.401978 
	C459.999390,598.838440 454.553314,596.476318 450.241150,598.885376 
	C443.080627,602.885620 444.222473,610.020081 444.401947,616.585693 
	C444.585541,623.300293 446.631042,626.180115 452.734741,627.936218 
z"/>
<path fill="#000000" opacity="1.000000" stroke="none" 
	d="
M567.737915,594.504395 
	C575.309692,593.737427 576.041931,594.423950 575.747192,601.437927 
	C575.695374,602.671509 575.577881,603.822693 574.254211,604.285828 
	C572.638733,604.851135 571.681885,603.937500 571.205444,602.548584 
	C570.532837,600.588318 569.742737,598.922119 567.422791,598.385254 
	C562.034729,597.138367 560.119568,598.527344 559.927002,604.083862 
	C559.864380,605.891907 559.917236,607.703918 559.917236,609.790955 
	C562.764893,610.703125 565.697449,610.486511 568.621643,610.367065 
	C570.023193,610.309814 571.505798,610.448120 571.667847,612.151672 
	C571.842407,613.987366 570.288818,614.122253 568.929688,614.249146 
	C568.599243,614.279968 568.264771,614.264099 567.932922,614.283264 
	C560.187073,614.730469 558.045593,617.728210 559.789124,625.487061 
	C560.084106,626.799866 560.589172,627.831238 561.936218,627.754944 
	C566.068542,627.520691 571.305969,630.017944 573.026855,623.431030 
	C573.361633,622.149719 574.500793,621.686951 575.818298,622.001587 
	C576.991821,622.281860 577.186218,623.229370 577.374023,624.263428 
	C578.451904,630.199402 576.834106,632.230774 570.854065,632.251526 
	C564.535461,632.273499 558.216675,632.256653 551.898193,632.218994 
	C550.607056,632.211304 549.040161,632.443420 548.606689,630.720093 
	C548.260071,629.341675 549.255249,628.556824 550.385986,628.085327 
	C552.690552,627.124390 552.808167,625.173340 552.801392,623.106384 
	C552.781738,617.120361 552.812378,611.134094 552.772339,605.148254 
	C552.752930,602.240906 553.511536,598.980164 549.532593,597.722290 
	C548.711670,597.462830 548.342712,596.528198 548.591431,595.640015 
	C548.981628,594.246277 550.200134,594.049622 551.381531,594.075562 
	C556.695557,594.192383 562.008362,594.366882 567.737915,594.504395 
z"/>
<path fill="#000000" opacity="1.000000" stroke="none" 
	d="
M678.262146,632.182861 
	C674.582825,631.846558 671.004395,633.203552 667.837952,630.831116 
	C676.098267,621.494690 677.584290,609.617432 682.304382,599.207214 
	C683.320007,596.967163 683.533752,594.177063 686.956787,594.281433 
	C690.199707,594.380371 690.242554,597.200073 691.015747,599.232910 
	C693.617310,606.072632 696.151245,612.941040 698.544922,619.855957 
	C699.948730,623.911255 701.810425,627.637939 706.607117,630.965149 
	C699.953430,632.673523 695.128113,632.603821 690.238586,631.488647 
	C690.027588,628.178345 694.818298,628.296143 693.551086,624.988892 
	C692.719604,622.818848 692.250061,620.044983 689.273865,620.244751 
	C685.573181,620.493164 681.027710,618.039673 678.468140,622.716003 
	C677.385559,624.693848 676.530518,626.860046 679.650513,628.567261 
	C682.706787,630.239624 681.444092,631.610291 678.262146,632.182861 
M682.627075,615.498474 
	C684.856079,615.754639 687.115051,616.251648 689.591064,614.715515 
	C688.405762,611.211548 687.276550,607.873596 685.801819,603.514221 
	C684.052063,608.013672 681.760132,611.095398 682.627075,615.498474 
z"/>
<path fill="#000000" opacity="1.000000" stroke="none" 
	d="
M282.047028,631.679932 
	C281.568817,631.000549 281.167816,630.254395 281.317871,630.118958 
	C288.948792,623.233582 289.317657,612.918945 293.473328,604.403625 
	C294.563141,602.170532 295.313171,599.765747 296.139496,597.411865 
	C296.815735,595.485474 297.967072,594.276733 300.126740,594.303955 
	C302.177307,594.329834 302.889160,595.705811 303.494080,597.396912 
	C305.735413,603.662720 308.027039,609.911316 310.378296,616.136780 
	C312.277039,621.164124 313.021912,626.828125 318.250031,629.961487 
	C314.899048,633.005920 306.774872,633.092651 303.379761,630.405701 
	C303.342102,629.428650 303.990906,628.949036 304.723236,628.502319 
	C308.111206,626.436035 306.754700,623.507385 305.117676,621.679443 
	C302.336670,618.574097 298.261871,620.331055 294.725647,620.214294 
	C292.424194,620.138184 291.807648,622.008789 291.162140,623.781250 
	C290.480499,625.652954 290.047791,627.358582 292.541504,628.227722 
	C293.754547,628.650452 294.643524,629.432434 294.243561,630.830078 
	C293.831604,632.269714 292.485565,632.198303 291.342621,632.180115 
	C288.354797,632.132629 285.368347,631.997925 282.047028,631.679932 
M302.115845,612.219299 
	C301.133148,609.630981 300.766541,606.765930 298.621887,604.193115 
	C296.910553,607.942810 295.343445,611.312683 294.776520,615.561951 
	C297.681458,614.948730 301.314056,618.207703 302.115845,612.219299 
z"/>
<path fill="#000000" opacity="1.000000" stroke="none" 
	d="
M375.673645,618.826050 
	C375.672272,616.188049 375.713165,614.023743 375.661926,611.861633 
	C375.523346,606.014893 377.585541,599.538818 369.102661,595.472534 
	C376.470184,593.823792 382.039062,594.240356 387.571777,594.229553 
	C388.896759,594.226929 390.225403,594.480591 391.546539,594.437561 
	C397.393036,594.247009 398.844086,595.832397 398.104340,601.623718 
	C397.950348,602.829285 397.837097,604.044678 396.424377,604.330566 
	C395.068604,604.604980 394.120697,603.870728 393.865265,602.560974 
	C392.755829,596.872620 388.320862,598.490417 384.710968,598.375793 
	C383.402985,598.334229 382.690582,599.126892 382.293579,600.434509 
	C380.298126,607.006958 382.547668,610.265442 389.413788,610.560547 
	C390.874390,610.623352 392.339996,610.569702 393.680176,610.569702 
	C394.838867,612.672668 394.242798,613.724548 392.369263,614.142395 
	C391.728882,614.285278 391.045685,614.239441 390.381683,614.272583 
	C382.303925,614.675720 380.457367,617.222656 382.250702,625.275330 
	C382.587646,626.788330 383.264587,627.856995 384.790314,627.828613 
	C388.168915,627.765625 391.897308,629.018066 394.560883,625.734741 
	C395.174286,624.978577 395.464935,623.968384 395.964813,623.110474 
	C396.680084,621.882874 398.014252,621.418335 398.848755,622.427429 
	C400.509552,624.435547 399.065674,626.904358 399.244568,629.169189 
	C399.358795,630.615723 398.739410,632.014221 397.127228,632.031616 
	C388.679352,632.122864 380.214844,632.869751 371.794006,631.583984 
	C371.566406,631.549194 371.403595,631.090393 370.692902,630.129150 
	C375.286957,627.983215 376.262390,623.944458 375.673645,618.826050 
z"/>
<path fill="#000000" opacity="1.000000" stroke="none" 
	d="
M780.423340,601.349976 
	C777.962097,597.111328 773.852112,597.426331 770.974182,598.730713 
	C767.294617,600.398254 769.571167,604.666138 769.307739,607.786194 
	C769.094543,610.310547 771.052734,610.621826 773.055176,610.605164 
	C775.053711,610.588501 777.054016,610.601379 779.051086,610.671021 
	C779.939819,610.702087 780.730164,611.160522 780.848816,612.090759 
	C781.000366,613.278748 780.245667,613.965271 779.125244,614.099426 
	C777.972534,614.237488 776.785950,614.118286 775.641235,614.291077 
	C773.498474,614.614441 770.278992,613.048523 769.549377,616.059814 
	C768.707092,619.536682 768.292847,623.461304 769.936829,626.825806 
	C771.143005,629.294250 779.966064,628.261414 781.667236,625.702698 
	C782.601929,624.296875 782.480347,621.758789 785.105774,622.182312 
	C786.469666,622.402405 786.937561,623.785034 786.641907,624.936157 
	C786.026184,627.332825 787.649658,631.463440 784.231018,631.788818 
	C775.822266,632.589294 767.314758,632.792542 758.876465,631.598938 
	C758.548279,631.552490 758.307556,630.888123 757.616577,629.964111 
	C763.937927,627.611633 762.565186,622.261963 762.626648,617.438416 
	C762.679749,613.273132 762.635864,609.106567 762.643188,604.940613 
	C762.648193,602.067322 762.793152,599.172913 759.306335,597.908142 
	C758.315857,597.548889 757.688538,596.652832 758.111206,595.510925 
	C758.522156,594.400574 759.553406,594.249146 760.587891,594.261108 
	C767.743164,594.343933 774.898132,594.453308 782.053589,594.513611 
	C784.599060,594.535095 785.125000,596.213989 785.029480,598.195312 
	C784.931519,600.228943 786.110718,602.830627 783.564270,604.032715 
	C781.660522,604.931335 781.019836,603.193604 780.423340,601.349976 
z"/>
<path fill="#000000" opacity="1.000000" stroke="none" 
	d="
M650.078125,631.683228 
	C644.471741,632.184692 639.181213,632.880798 633.647522,630.597961 
	C640.370850,627.998962 638.888550,622.726379 638.944946,618.108093 
	C639.007996,612.949768 638.970398,607.789124 638.897766,602.630676 
	C638.872742,600.856201 639.155762,598.758728 636.551270,598.377625 
	C634.285156,598.046021 632.710876,598.925537 631.806030,601.092590 
	C631.267822,602.381348 631.248718,604.524963 629.220703,604.193726 
	C626.824097,603.802246 627.926270,601.566589 627.659912,600.072632 
	C626.787781,595.180481 628.914734,593.702454 633.684570,593.982056 
	C640.312012,594.370422 646.976440,594.133118 653.625000,594.153931 
	C655.549255,594.159912 657.498596,594.302612 657.760437,596.726318 
	C658.023010,599.157349 658.938904,601.946045 657.073486,603.907349 
	C655.707031,605.344055 654.258850,604.111633 653.827942,602.403015 
	C653.115540,599.577881 651.556458,597.901184 648.524048,598.380005 
	C645.007080,598.935242 646.110474,601.901855 646.038330,603.989685 
	C645.865967,608.976624 645.949829,613.973816 645.996155,618.966309 
	C646.033325,622.979553 644.975647,627.463501 650.433044,629.237244 
	C651.124878,629.462158 650.983093,630.695068 650.078125,631.683228 
z"/>
<path fill="#000000" opacity="1.000000" stroke="none" 
	d="
M511.493652,600.234375 
	C511.767853,602.123596 512.222473,603.836975 510.260956,604.410278 
	C508.271057,604.991760 507.732452,603.321594 507.239563,601.882812 
	C505.977844,598.199890 502.960205,598.169006 499.863556,598.295532 
	C498.203522,598.363342 496.084534,598.181396 495.732635,600.231812 
	C495.177063,603.469238 494.725006,606.861633 496.131165,610.015076 
	C496.649750,611.178162 498.139679,610.978760 499.297699,611.018921 
	C501.293671,611.088379 503.299286,611.047424 505.283386,611.236206 
	C506.684937,611.369507 507.961243,612.009094 507.791931,613.729919 
	C507.641785,615.256165 506.373932,615.368774 505.160858,615.388489 
	C504.161316,615.404724 503.155029,615.330383 502.162903,615.419922 
	C499.456818,615.664062 495.793243,614.885803 495.556915,618.913696 
	C495.354645,622.362000 493.586182,626.995056 499.395660,628.188782 
	C500.452698,628.406006 501.224762,629.039551 501.187469,630.239014 
	C501.139130,631.794556 499.985565,632.136597 498.764954,632.151550 
	C494.767670,632.200562 490.769348,632.189148 486.771637,632.164734 
	C485.716614,632.158325 484.725861,631.804749 484.482086,630.647888 
	C484.241638,629.506409 484.940125,628.660706 485.928284,628.308228 
	C489.035309,627.200012 488.837891,624.640869 488.831512,622.111084 
	C488.816772,616.279236 488.823486,610.447327 488.827301,604.615479 
	C488.829163,601.791870 489.228241,598.829712 485.601196,597.628357 
	C484.780823,597.356628 484.402283,596.431946 484.624146,595.543274 
	C484.915405,594.376709 485.906921,594.107666 486.955078,594.105713 
	C494.104187,594.092407 501.256927,593.960205 508.400940,594.150635 
	C512.251160,594.253174 511.214355,597.508179 511.493652,600.234375 
z"/>
<path fill="#000000" opacity="1.000000" stroke="none" 
	d="
M591.812012,606.954346 
	C590.645752,601.831421 591.893066,597.773560 596.192871,595.435791 
	C600.845642,592.906006 605.815063,592.979614 610.487915,595.737549 
	C611.930786,596.589050 613.046204,597.925903 613.226929,599.718567 
	C613.413086,601.565186 612.701965,602.998413 610.879639,603.654968 
	C609.043213,604.316589 608.080444,603.389526 607.552979,601.703979 
	C606.735840,599.092468 604.915955,597.993713 602.220947,598.284302 
	C599.794067,598.545959 598.065125,599.916504 597.619324,602.202881 
	C597.124817,604.739685 598.626404,606.774048 600.666443,608.044983 
	C603.479370,609.797546 606.536560,611.152527 609.432678,612.778381 
	C614.228210,615.470459 615.317444,619.835083 614.222839,624.779297 
	C613.135864,629.689026 609.273315,631.593933 604.721252,632.228027 
	C601.584290,632.665100 598.398682,632.753845 595.410217,631.352234 
	C592.448975,629.963501 590.616516,627.771729 590.859985,624.327698 
	C590.974976,622.700256 591.851624,621.423767 593.492371,621.075134 
	C595.192993,620.713745 595.836731,622.022217 596.205139,623.357178 
	C596.882446,625.811768 598.330933,627.404358 600.834167,628.087158 
	C603.822083,628.902161 606.059753,627.862549 607.726074,625.428528 
	C609.543091,622.774475 608.182800,620.709106 606.302734,618.833008 
	C604.366089,616.900452 601.772827,616.054077 599.382080,614.931580 
	C595.904663,613.298950 593.274780,610.963013 591.812012,606.954346 
z"/>
<path fill="#000000" opacity="1.000000" stroke="none" 
	d="
M211.689789,605.987061 
	C214.050003,609.368225 217.631516,610.182922 220.705063,611.737488 
	C225.300095,614.061646 228.156052,617.494080 227.870422,622.726440 
	C227.628632,627.155945 224.874344,630.208740 220.764267,631.502075 
	C215.901016,633.032288 210.839340,633.529724 206.535919,629.928040 
	C202.908722,626.892273 203.449478,623.334961 207.630859,621.083801 
	C209.516586,621.806763 209.334030,623.795349 210.048218,625.209778 
	C211.506577,628.097961 214.007065,628.600952 216.791412,628.288574 
	C219.155716,628.023132 220.785736,626.626892 221.303818,624.235168 
	C221.907990,621.446106 220.784134,619.296509 218.408218,617.910156 
	C215.966202,616.485168 213.330276,615.389771 210.903671,613.941589 
	C204.784332,610.289490 202.729568,603.669861 206.050186,598.693481 
	C209.239182,593.914429 218.172623,592.306885 223.185516,595.598694 
	C224.628052,596.545898 225.780350,597.718079 226.102951,599.472229 
	C226.408630,601.134399 225.765411,602.444580 224.272949,603.213562 
	C222.478836,604.138000 221.467987,603.224182 220.851700,601.572144 
	C219.596878,598.208374 216.919449,597.481018 213.956757,598.514954 
	C210.455429,599.736938 210.767975,602.724915 211.689789,605.987061 
z"/>
<path fill="#000000" opacity="1.000000" stroke="none" 
	d="
M736.980347,594.115906 
	C745.968201,594.101624 746.594727,594.947815 744.664612,603.892517 
	C742.227112,604.858215 741.936279,603.029175 741.424255,601.423706 
	C740.552124,598.689331 738.486572,598.000183 735.901855,598.353210 
	C732.897888,598.763489 733.601685,601.111511 733.568359,603.014099 
	C733.486755,607.678650 733.381958,612.344727 733.423035,617.008972 
	C733.467163,622.017151 732.096741,627.644043 739.063293,629.659607 
	C735.502808,633.262268 724.733826,633.138916 721.572021,629.389587 
	C727.796082,628.390259 726.967407,623.768188 726.937927,619.491760 
	C726.898865,613.825684 726.934082,608.158997 726.875916,602.493225 
	C726.857300,600.687927 727.040466,598.636169 724.400513,598.358704 
	C722.389954,598.147339 720.841492,598.755127 719.893433,600.705688 
	C719.162476,602.209534 719.181946,605.044250 716.630249,604.209717 
	C713.953186,603.334229 715.099426,600.528564 715.021240,598.497375 
	C714.929810,596.122437 715.562378,594.148071 718.545593,594.148010 
	C724.532593,594.147766 730.519592,594.125427 736.980347,594.115906 
z"/>
<path fill="#000000" opacity="1.000000" stroke="none" 
	d="
M268.457306,604.229736 
	C266.718781,603.179321 266.905701,601.430664 266.097717,600.193481 
	C264.930115,598.405640 263.183228,598.111877 261.263336,598.403870 
	C259.236694,598.712097 259.210968,600.331787 259.205048,601.843689 
	C259.176361,609.171997 259.401672,616.509338 259.096283,623.825195 
	C258.938721,627.599487 262.562653,627.822205 263.935577,629.872375 
	C263.647949,632.230652 261.952606,632.108826 260.518677,632.163635 
	C257.857361,632.265381 255.186264,632.309387 252.526993,632.195740 
	C250.804245,632.122131 248.403961,632.918884 247.727417,630.653137 
	C247.036240,628.338379 249.606415,628.411194 250.891068,627.588196 
	C251.964188,626.900818 252.566345,625.843262 252.481842,624.646240 
	C251.874863,616.046692 252.037491,607.432861 252.376877,598.874451 
	C248.435715,597.665283 245.690506,598.092041 244.525970,602.124329 
	C244.182449,603.313904 243.573898,604.351440 242.078705,604.027893 
	C240.590881,603.705994 240.638046,602.441528 240.537521,601.264832 
	C240.020126,595.208435 240.662445,594.563354 246.961243,594.568481 
	C253.454758,594.573853 259.948914,594.544250 266.441498,594.446899 
	C268.281555,594.419312 270.720398,593.879822 270.840302,596.322205 
	C270.973450,599.034912 273.407715,602.718506 268.457306,604.229736 
z"/>
<path fill="#000000" opacity="1.000000" stroke="none" 
	d="
M352.113403,598.674255 
	C347.920868,597.642700 346.166626,599.014771 346.331451,603.124451 
	C346.531494,608.111633 346.344238,613.113098 346.411377,618.107239 
	C346.474792,622.820862 344.908722,628.326172 352.367889,629.293335 
	C349.255920,632.920959 339.340240,633.268127 334.763367,630.143860 
	C341.609802,627.500122 339.766357,621.785889 339.849274,616.740417 
	C339.925873,612.079651 339.911499,607.416382 339.862122,602.755005 
	C339.843445,600.993774 340.260223,598.850586 337.668823,598.408813 
	C335.270966,598.000000 333.354706,598.732910 332.516968,601.216797 
	C332.057709,602.578430 332.185028,604.595215 330.013733,604.195923 
	C327.559906,603.744812 328.476898,601.685974 328.562256,600.127869 
	C328.651947,598.489502 328.812958,596.855042 328.967957,594.902649 
	C338.247681,594.106262 347.343262,594.374573 356.426331,594.435608 
	C358.619934,594.450317 358.965942,596.360413 358.963531,598.077637 
	C358.960632,600.150879 359.913239,602.549561 357.780121,604.103271 
	C356.646759,604.928772 355.544434,604.264465 354.930939,603.063416 
	C354.185150,601.603455 353.976776,599.834839 352.113403,598.674255 
z"/>
<path fill="#000000" opacity="1.000000" stroke="none" 
	d="
M639.617676,676.339233 
	C639.086975,681.962463 638.638184,687.223938 640.536438,692.340881 
	C638.285156,693.600830 636.270447,693.499146 633.922241,692.376892 
	C634.747375,689.020081 635.208496,685.626099 634.525635,681.764709 
	C631.883545,685.318054 631.417053,689.866577 628.228088,693.206787 
	C624.624817,689.890503 624.251953,685.259277 621.316650,681.184998 
	C621.289917,685.390747 620.609375,688.803284 622.803223,691.932739 
	C620.635559,693.921875 618.647156,693.058228 616.389709,692.791931 
	C618.435120,686.254395 618.294250,680.106934 616.789062,673.769897 
	C620.316406,671.998840 622.780701,672.856689 624.361633,676.437439 
	C625.617432,679.281799 626.913696,682.108276 628.429260,685.468811 
	C631.259705,682.116150 631.835022,678.380920 633.603088,675.273315 
	C634.778748,673.206909 636.462769,672.582581 638.624512,673.009155 
	C640.451477,673.369629 640.594177,674.520264 639.617676,676.339233 
z"/>
<path fill="#000000" opacity="1.000000" stroke="none" 
	d="
M497.330444,733.232056 
	C496.529144,735.047546 496.426117,736.878174 494.451202,737.776062 
	C490.661926,735.818054 491.590424,730.945557 488.661163,728.201050 
	C486.002289,730.855042 486.147705,735.070435 482.912933,738.076843 
	C477.821899,732.457581 477.696991,724.624023 473.136169,719.060425 
	C475.625031,717.155396 477.666962,717.690552 480.053955,718.328857 
	C480.050507,722.303528 480.987305,726.063477 483.576599,729.838135 
	C485.185760,726.091003 487.866608,723.038574 485.176147,718.957336 
	C487.375427,717.173401 489.412659,717.690613 491.778992,718.307251 
	C491.117981,722.486450 493.101501,725.943665 494.639893,730.338623 
	C497.320496,726.373657 498.510315,722.833313 497.252472,718.798523 
	C499.597382,717.401978 501.540314,717.357361 503.692017,718.722351 
	C501.563995,723.546448 499.506866,728.209839 497.330444,733.232056 
z"/>
<path fill="#000000" opacity="1.000000" stroke="none" 
	d="
M407.258453,672.871826 
	C409.404144,673.063843 411.775024,672.695862 410.552246,675.796326 
	C409.883667,677.491699 408.686523,679.311462 411.033966,680.510742 
	C412.530579,681.275330 414.459015,681.374939 415.788330,680.283020 
	C417.566956,678.821960 416.630981,677.007080 415.743195,675.338013 
	C415.538879,674.953857 415.587402,674.435120 415.523712,674.006165 
	C418.586884,672.741089 418.586884,672.741089 422.445190,673.556335 
	C420.916199,679.758240 420.512817,686.020264 422.557709,692.387207 
	C420.415100,693.918274 418.230255,693.122620 415.933258,692.911255 
	C415.296570,690.007141 418.609863,687.115906 415.480896,684.871887 
	C414.225006,683.971252 412.426849,683.891479 411.197205,684.732117 
	C407.982269,686.929688 411.002197,689.863159 410.682281,692.510193 
	C408.401062,693.556580 406.245972,693.688843 403.980713,692.348877 
	C405.265900,686.766907 405.691193,681.200134 404.149384,675.693542 
	C403.354858,672.855896 405.333893,673.200073 407.258453,672.871826 
z"/>
<path fill="#000000" opacity="1.000000" stroke="none" 
	d="
M586.349792,361.899445 
	C585.721558,365.054962 587.287292,367.691040 587.218323,371.528656 
	C581.120300,368.570312 582.076111,363.551819 581.974670,358.918945 
	C578.883728,359.924255 579.735474,362.922302 578.420227,364.782959 
	C575.837585,364.694946 574.258789,363.256104 572.939758,361.145355 
	C577.884644,357.046570 581.246277,352.125244 583.158997,345.943146 
	C586.497314,346.191010 588.843506,348.405823 591.039368,350.485229 
	C594.182251,353.461548 593.276489,357.464539 589.248596,359.277649 
	C588.050842,359.816772 586.587158,359.823090 586.349792,361.899445 
z"/>
<path fill="#000000" opacity="1.000000" stroke="none" 
	d="
M616.756775,389.698486 
	C619.734924,387.583923 622.633972,385.895050 624.234985,382.556000 
	C626.947754,383.720276 627.895630,385.826447 628.496216,388.166290 
	C627.072083,390.088531 623.786499,388.437347 623.151672,391.554138 
	C625.920227,394.868134 634.244263,388.293091 634.135559,397.430511 
	C630.130737,397.812500 626.023926,392.883759 622.987122,396.768494 
	C620.842957,399.511322 620.803650,403.899536 619.755310,407.811829 
	C616.362671,407.049347 614.604004,404.006714 615.260132,401.760986 
	C615.918579,399.507202 618.057434,397.502411 618.200195,394.524567 
	C615.575867,394.815735 614.707947,397.082825 613.308655,398.922821 
	C610.856079,397.901245 610.055054,395.760834 608.919189,393.261719 
	C611.663269,392.372925 614.433350,391.848480 616.756775,389.698486 
z"/>
<path fill="#000000" opacity="1.000000" stroke="none" 
	d="
M560.410034,334.458923 
	C563.399902,334.836578 565.783691,336.029480 568.074768,337.365875 
	C572.663086,340.042236 573.126343,342.206329 569.919983,346.419495 
	C569.145264,347.437439 568.946899,348.277863 568.961426,349.528015 
	C569.019592,354.536499 566.395935,356.823700 561.498474,355.917725 
	C558.247437,355.316376 555.147583,354.121185 552.332092,351.574280 
	C556.820068,346.708771 559.195557,340.944214 560.410034,334.458923 
M564.174316,348.662872 
	C563.092163,347.689697 562.012207,346.192810 560.457153,347.703247 
	C559.522583,348.610992 558.975220,349.960327 559.609192,351.350586 
	C560.072510,352.366608 561.037598,352.719666 562.084167,352.642578 
	C564.224426,352.484894 564.913452,351.230865 564.174316,348.662872 
M562.854004,342.000214 
	C562.385437,343.793732 563.272705,344.528412 564.921814,344.445160 
	C566.016174,344.389893 566.693970,343.621552 567.048645,342.602539 
	C567.431213,341.503571 567.076233,340.609344 566.132629,340.022736 
	C564.449463,338.976440 563.748657,340.191833 562.854004,342.000214 
z"/>
<path fill="#000000" opacity="1.000000" stroke="none" 
	d="
M522.868286,673.358887 
	C527.717896,672.008301 531.593018,672.824341 534.245361,676.840698 
	C536.648865,680.480164 536.714294,684.375610 534.584534,688.188538 
	C532.623535,691.699158 529.507324,693.356873 525.509277,693.265076 
	C520.798096,693.156860 517.395630,690.271667 516.332947,685.587097 
	C515.101440,680.158325 517.136963,676.154907 522.868286,673.358887 
M531.173889,684.739929 
	C531.533936,679.316406 528.201721,674.765137 524.746521,676.073486 
	C521.333984,677.365845 521.073059,680.372314 521.164734,683.461121 
	C521.263672,686.792114 522.737427,689.386963 526.061768,689.980591 
	C529.213196,690.543274 530.074036,687.781799 531.173889,684.739929 
z"/>
<path fill="#000000" opacity="1.000000" stroke="none" 
	d="
M550.779785,693.288330 
	C548.475342,693.351929 546.485779,693.803101 544.625427,692.841187 
	C547.367493,684.115417 547.430359,678.827026 544.488525,673.442505 
	C549.136292,672.487366 553.422729,672.193542 557.481628,674.434875 
	C559.996277,675.823669 561.074158,688.604370 559.002686,690.653870 
	C556.846252,692.787354 553.970947,693.009766 550.779785,693.288330 
M550.755188,685.460571 
	C550.267212,687.436218 549.670715,689.578796 552.742310,689.767944 
	C554.352722,689.867004 555.802429,688.940613 555.526611,687.133118 
	C555.155151,684.698242 553.514160,683.979065 550.755188,685.460571 
M550.712952,677.206177 
	C550.244629,678.957336 550.036255,680.627563 552.606506,680.611572 
	C553.696838,680.604797 554.538635,679.848328 554.499451,678.737732 
	C554.420959,676.513367 553.140930,675.951599 550.712952,677.206177 
z"/>
<path fill="#000000" opacity="1.000000" stroke="none" 
	d="
M406.566467,363.594330 
	C409.270508,361.109222 411.803009,358.945068 414.284210,356.723602 
	C416.383118,354.844421 418.192413,355.742126 419.231995,357.664062 
	C420.769135,360.505676 421.819794,363.610413 423.050018,366.537476 
	C421.620605,368.141937 419.105377,366.852905 418.044861,369.093781 
	C417.959656,370.894867 419.245544,372.419250 420.859344,372.316040 
	C424.586395,372.077637 425.009308,368.633972 425.793243,365.053894 
	C428.735138,366.801025 430.500824,368.781372 428.268188,371.084259 
	C425.341095,374.103424 422.241760,377.192596 418.278442,379.089630 
	C415.590240,373.419922 412.462952,368.487610 406.915253,365.597412 
	C406.246857,365.249176 406.122711,364.597168 406.566467,363.594330 
M413.866058,361.175537 
	C411.640686,364.021973 413.794800,364.952209 415.768890,366.189392 
	C418.097687,361.857452 417.880524,361.165924 413.866058,361.175537 
z"/>
<path fill="#000000" opacity="1.000000" stroke="none" 
	d="
M631.809570,417.877441 
	C631.394775,414.715942 629.654724,415.680634 628.136292,416.359528 
	C626.452332,417.112427 626.993713,418.396088 627.384216,419.747925 
	C628.105347,422.244324 630.990906,422.423492 632.430481,424.174988 
	C627.582275,428.117249 623.418640,423.652252 621.591858,412.927368 
	C628.063293,412.205536 633.885010,409.904816 638.769165,404.946869 
	C641.771606,408.413086 642.952209,412.446564 644.224548,416.262329 
	C645.106567,418.907501 643.008301,419.938538 640.246948,419.842834 
	C639.528809,417.135925 641.801880,413.717896 638.413574,412.128662 
	C637.288635,411.601013 635.612976,412.262390 635.047852,413.631683 
	C633.935364,416.327148 637.330383,416.438904 638.038391,418.441895 
	C637.118164,420.632507 635.098389,421.474121 632.938477,421.352325 
	C630.960388,421.240784 631.643372,419.465179 631.809570,417.877441 
z"/>
<path fill="#000000" opacity="1.000000" stroke="none" 
	d="
M634.017883,443.423645 
	C635.314697,441.318268 637.410400,440.248566 638.014099,437.983917 
	C635.427551,437.156769 634.226562,439.645477 632.362244,440.368805 
	C630.314270,438.444366 630.297241,436.161743 630.210449,433.535248 
	C636.582886,433.497986 642.714233,432.794098 648.128235,428.547974 
	C650.676147,431.525726 651.077576,435.189758 651.057007,438.680542 
	C651.034912,442.441895 647.849304,444.460693 644.874451,443.169373 
	C639.769165,440.953278 638.532532,444.342651 636.666992,447.366333 
	C636.160095,448.187927 636.090515,449.303436 634.648987,449.891235 
	C631.858398,448.296967 632.885315,446.007904 634.017883,443.423645 
M645.127991,435.642609 
	C643.874084,436.250977 641.823120,436.514618 643.598816,438.602966 
	C644.681763,439.876709 646.089905,439.649200 647.017883,438.511658 
	C648.276611,436.968658 647.892700,435.776581 645.127991,435.642609 
z"/>
<path fill="#000000" opacity="1.000000" stroke="none" 
	d="
M501.163330,673.408569 
	C505.392670,674.491211 507.435059,677.357727 505.319855,680.494080 
	C502.424133,684.787720 504.435425,687.124695 507.148041,689.797424 
	C507.826324,690.465759 508.884460,690.899048 508.621521,692.153564 
	C504.988434,693.486816 504.988434,693.486816 498.166687,686.003784 
	C496.058990,688.271973 498.666962,690.222168 498.694061,692.416809 
	C496.426422,693.817444 494.291260,693.309509 492.070465,692.717346 
	C494.220978,683.369507 494.180389,681.270630 491.708221,673.850220 
	C494.638367,672.240967 497.695770,672.713806 501.163330,673.408569 
M499.223328,680.957031 
	C501.139862,679.997498 501.228455,678.550964 500.120148,676.981262 
	C499.594421,676.236572 498.522308,676.155640 498.031128,676.903870 
	C497.094421,678.330750 496.722198,679.886169 499.223328,680.957031 
z"/>
<path fill="#000000" opacity="1.000000" stroke="none" 
	d="
M712.187805,687.186523 
	C711.146973,681.814758 711.224182,677.104919 716.277710,674.174866 
	C721.270935,671.279602 727.500732,672.935852 730.062866,677.712463 
	C732.706238,682.640564 730.851135,689.320251 726.081360,692.048889 
	C721.057739,694.922729 715.593506,693.142517 712.187805,687.186523 
M724.869324,688.347839 
	C726.885559,685.554932 727.423462,682.565491 725.722107,679.471924 
	C724.040222,676.413696 721.424866,674.857239 718.375061,677.230469 
	C715.327637,679.601929 715.572205,683.249146 717.028870,686.361511 
	C718.417114,689.327515 720.895264,690.988892 724.869324,688.347839 
z"/>
<path fill="#000000" opacity="1.000000" stroke="none" 
	d="
M364.444672,466.338348 
	C362.532104,466.119324 361.442566,467.911224 359.387512,467.090118 
	C358.965515,463.469910 359.248322,459.751648 360.965820,456.327576 
	C362.281097,453.705444 365.293488,452.547180 367.209473,454.463837 
	C371.642395,458.898376 374.437988,455.751770 377.630554,453.173370 
	C378.112030,452.784485 378.708649,452.538116 379.306793,452.194336 
	C380.406128,456.121277 380.406128,456.121277 372.367401,462.094604 
	C374.465515,464.351624 376.701721,461.600922 378.895935,462.283417 
	C379.729340,464.397858 379.585541,466.410248 378.269592,468.681183 
	C373.935974,467.086151 369.373962,466.808105 364.444672,466.338348 
M366.806000,462.283020 
	C368.456451,460.563354 367.683594,459.283997 365.882904,458.586212 
	C364.458557,458.034241 363.133301,458.871582 362.929169,460.294861 
	C362.557190,462.888031 364.608551,462.470825 366.806000,462.283020 
z"/>
<path fill="#000000" opacity="1.000000" stroke="none" 
	d="
M329.906250,689.226807 
	C331.214569,688.256653 332.008270,686.963684 333.580597,687.690552 
	C333.752472,693.569397 328.116180,695.294922 318.686279,692.231995 
	C320.342163,686.144348 320.401001,680.006592 318.641571,673.920288 
	C327.109467,671.079773 332.732391,672.619568 332.402039,677.808838 
	C329.809814,677.969971 327.372467,674.418823 324.723145,677.206238 
	C324.031494,677.933899 324.055084,679.173645 324.771851,679.989624 
	C326.592590,682.062134 328.376617,679.320557 330.246033,679.637512 
	C331.644196,681.827148 331.166962,683.763733 330.483429,685.584351 
	C328.204620,686.331909 326.587769,682.959229 324.717285,685.289734 
	C323.964691,686.227356 323.987885,687.614136 324.639435,688.611755 
	C325.918030,690.569580 327.814789,689.855347 329.906250,689.226807 
z"/>
<path fill="#000000" opacity="1.000000" stroke="none" 
	d="
M438.483612,684.841797 
	C437.160645,686.582764 436.728088,688.368469 438.535980,689.379517 
	C441.545349,691.062439 443.817505,688.713806 446.919006,686.619690 
	C447.832092,690.174011 447.962677,692.844299 444.072998,693.121704 
	C440.328003,693.388916 436.441071,693.864990 432.364441,692.586243 
	C433.555023,686.379211 434.276337,680.199463 431.472839,673.626709 
	C436.191376,672.421997 440.722443,672.204163 445.150330,673.560364 
	C446.776672,674.058472 446.440216,676.006592 445.662903,677.697510 
	C443.072266,677.915710 440.237183,674.072327 437.789368,677.639282 
	C436.467865,679.564880 438.383392,681.231873 441.008118,680.428711 
	C441.901062,680.155518 442.540375,679.064026 443.992554,679.764648 
	C444.723907,681.773315 444.864716,683.922485 444.083618,686.009338 
	C441.728119,686.615723 440.847748,683.534119 438.483612,684.841797 
z"/>
<path fill="#000000" opacity="1.000000" stroke="none" 
	d="
M693.782104,689.817993 
	C700.573181,690.168701 696.382080,686.367798 696.298218,684.121094 
	C699.203979,682.676453 699.203979,682.676453 702.800476,683.760620 
	C702.145508,687.565369 703.439209,692.256958 697.363403,693.178467 
	C691.895020,694.007874 686.587158,691.717041 684.754761,687.392456 
	C682.824951,682.837708 684.497986,677.477539 688.734924,674.663147 
	C691.511353,672.818909 694.629272,672.253662 697.811707,672.857117 
	C701.333191,673.524841 702.199585,675.694153 700.607483,679.491760 
	C697.000000,676.443909 693.554321,673.395508 690.142639,678.739197 
	C687.803894,682.402344 689.222778,686.856445 693.782104,689.817993 
z"/>
<path fill="#000000" opacity="1.000000" stroke="none" 
	d="
M614.487061,374.037750 
	C613.471802,381.334930 608.474670,385.295135 602.173767,384.169434 
	C596.666565,383.185547 593.384094,377.521362 594.861206,371.551239 
	C596.140625,366.380066 602.037598,362.986877 607.343384,364.572784 
	C611.769043,365.895630 614.192932,368.993652 614.487061,374.037750 
M598.470947,374.912354 
	C598.050415,377.337128 598.937317,379.250183 601.052307,380.365479 
	C603.046509,381.417084 605.036621,380.741638 606.609558,379.361206 
	C608.890076,377.359802 610.942993,375.077362 610.588135,371.719818 
	C610.368896,369.645874 608.937988,368.492950 606.920166,368.216614 
	C603.426575,367.738129 601.359619,369.872589 599.584778,372.427673 
	C599.209106,372.968475 598.976746,373.608856 598.470947,374.912354 
z"/>
<path fill="#000000" opacity="1.000000" stroke="none" 
	d="
M601.217773,680.392822 
	C605.294250,679.740845 605.762756,680.770569 604.100647,685.988464 
	C601.940063,687.028748 599.881531,682.158020 597.715271,685.746460 
	C597.097412,686.770020 597.113831,688.171509 598.149109,688.953430 
	C601.410156,691.416687 603.927307,688.656250 606.777832,687.193054 
	C608.476135,690.174866 607.908386,692.709229 604.903503,693.024963 
	C600.895325,693.446167 596.682251,693.967712 592.451477,692.542908 
	C594.079895,686.280884 594.558838,680.174255 592.015076,673.605286 
	C596.665161,672.400085 601.209473,672.162659 605.589844,673.700684 
	C607.329834,674.311584 607.155396,676.328613 605.920532,678.049316 
	C603.237183,677.559204 600.844360,674.636658 598.098999,677.124207 
	C597.626892,677.551880 597.445801,678.713196 597.642700,679.385498 
	C598.137085,681.073792 599.523071,680.957153 601.217773,680.392822 
z"/>
<path fill="#000000" opacity="1.000000" stroke="none" 
	d="
M535.255310,342.766602 
	C534.721497,345.985443 532.962891,347.093658 530.224609,346.293549 
	C526.767212,345.283295 522.925781,345.903320 519.438904,343.787109 
	C521.912964,337.925507 523.411133,331.961456 522.221313,325.675598 
	C530.899231,324.402679 536.415955,326.889282 535.367493,331.658783 
	C532.830994,331.592194 531.142273,327.170837 528.059387,329.981293 
	C527.260254,330.709839 526.972046,331.760193 527.562988,332.695129 
	C528.931458,334.860260 530.927612,332.800018 532.656311,333.335938 
	C533.630371,335.216370 533.506348,337.067627 532.441406,338.800110 
	C531.458313,339.403931 530.756958,339.047699 530.120178,338.437897 
	C529.062195,337.424835 527.865784,336.829529 526.626526,337.966919 
	C525.742737,338.778107 525.362610,340.003723 525.749817,341.172333 
	C526.359558,343.012604 528.213623,342.384521 529.500916,342.920044 
	C531.613770,343.798950 533.093811,338.926544 535.255310,342.766602 
z"/>
<path fill="#000000" opacity="1.000000" stroke="none" 
	d="
M459.340332,718.652100 
	C462.362976,724.752502 463.838715,731.133545 467.504944,736.679260 
	C465.199554,738.929626 462.877258,738.151123 460.332153,737.420349 
	C460.332153,735.892212 460.332153,734.477051 460.332153,733.117859 
	C454.462189,731.545288 453.789917,731.997559 454.109009,737.317017 
	C452.141174,738.378235 450.238129,738.618896 448.114746,736.813904 
	C451.134766,731.887390 452.706787,726.484741 454.919739,721.351318 
	C455.649658,719.658142 456.179474,717.231873 459.340332,718.652100 
z"/>
<path fill="#000000" opacity="1.000000" stroke="none" 
	d="
M370.980164,430.976776 
	C373.299377,431.058655 375.594360,431.216858 377.389130,432.890717 
	C378.043091,435.210388 373.447388,436.445007 376.213531,438.979248 
	C378.566071,441.134613 381.848602,437.959320 381.010590,434.307068 
	C380.736023,433.110382 379.157440,432.264557 380.000824,430.740875 
	C384.753784,430.913300 385.560120,431.680847 384.388672,435.672791 
	C383.342896,439.236572 383.073059,443.117432 380.759277,446.359467 
	C375.411835,442.598907 369.695801,440.989197 363.017975,441.514984 
	C362.433105,436.997009 364.007202,432.867096 365.831116,429.211884 
	C367.174805,426.519104 369.684875,427.475159 370.631622,430.708862 
	C369.164490,431.370667 368.007416,431.714630 367.522552,432.897980 
	C367.051147,434.048462 366.052124,435.371094 367.446228,436.475708 
	C368.315796,437.164642 369.454926,437.856995 370.636597,437.290863 
	C372.218292,436.533081 371.742615,435.162659 371.430603,433.855591 
	C371.205841,432.913818 371.125122,431.937622 370.980164,430.976776 
z"/>
<path fill="#000000" opacity="1.000000" stroke="none" 
	d="
M524.155029,725.940308 
	C525.621521,729.862549 526.829102,733.473816 528.908813,736.716797 
	C526.931396,738.794373 524.857422,738.130554 522.410034,737.506470 
	C522.544617,734.490295 522.352173,731.653870 517.919556,732.192871 
	C514.105896,732.656494 516.248657,735.398987 515.739746,737.130371 
	C513.840515,738.576538 512.068420,738.134460 509.641296,736.993835 
	C512.805359,731.962769 514.732422,726.724976 516.587524,721.455872 
	C517.137695,719.893188 517.650879,718.019287 519.739014,718.127625 
	C521.538574,718.221008 521.849121,720.018799 522.403076,721.382385 
	C522.967041,722.770508 523.486084,724.176941 524.155029,725.940308 
z"/>
<path fill="#000000" opacity="1.000000" stroke="none" 
	d="
M485.178284,345.643951 
	C484.296295,344.336060 483.954834,343.016724 483.199402,342.007263 
	C482.276886,340.774536 480.800262,341.059143 479.517822,341.480560 
	C478.137604,341.934113 477.228424,342.827545 477.552032,344.455994 
	C478.566803,349.562134 474.998230,347.456360 471.798065,348.651245 
	C475.104218,340.850494 474.279877,333.309723 478.236786,326.263275 
	C483.879974,331.869507 486.157928,338.697815 491.055878,343.465820 
	C489.605652,345.985138 487.345215,345.277344 485.178284,345.643951 
z"/>
<path fill="#000000" opacity="1.000000" stroke="none" 
	d="
M378.493103,408.620850 
	C383.998169,408.175507 389.002045,410.094025 394.304291,408.788696 
	C394.881897,411.583038 393.427765,413.321869 391.956543,415.447083 
	C389.622711,414.419891 387.184692,411.990021 385.376831,416.274597 
	C383.656403,420.351990 387.240326,419.946869 388.934204,421.132263 
	C389.114471,423.429657 388.202484,425.027100 385.827148,426.613678 
	C382.792450,419.887360 375.442078,416.522644 372.646759,409.615601 
	C374.763763,407.954193 376.474884,408.839935 378.493103,408.620850 
z"/>
<path fill="#000000" opacity="1.000000" stroke="none" 
	d="
M475.247070,693.067993 
	C472.936859,693.089355 470.892639,693.743469 468.904541,692.208130 
	C470.336182,686.152100 470.550262,679.981506 468.918121,673.727173 
	C472.844208,671.916260 476.555695,672.834900 480.143219,674.125671 
	C482.142517,674.845032 483.202911,676.586548 483.215149,678.837097 
	C483.229340,681.444946 482.054413,683.638000 479.751770,684.422668 
	C475.642670,685.823120 472.994659,687.381409 476.489563,691.917786 
	C476.552551,691.999573 475.923737,692.614197 475.247070,693.067993 
M475.330231,677.035950 
	C474.347321,678.830688 473.599640,680.781006 475.767426,682.088013 
	C476.820190,682.722839 478.029694,681.687500 478.351654,680.540771 
	C478.936432,678.457947 478.805054,676.594360 475.330231,677.035950 
z"/>
<path fill="#000000" opacity="1.000000" stroke="none" 
	d="
M639.731262,457.976959 
	C638.001221,459.728699 636.530762,461.789673 638.826721,463.192291 
	C641.336975,464.725800 642.100159,461.950562 642.880676,460.212677 
	C644.411133,456.805145 646.338867,453.632263 650.661011,455.070831 
	C654.271301,456.272522 655.262878,459.663574 655.111328,463.212433 
	C654.972656,466.459717 653.185791,467.486908 650.230652,466.634125 
	C650.048523,466.034546 649.833069,465.706940 649.882080,465.425415 
	C650.225220,463.456909 653.729797,461.144257 650.150452,459.661713 
	C647.454834,458.545105 647.023193,461.873810 646.166687,463.708435 
	C644.573547,467.121216 642.707275,470.099121 638.260681,468.183563 
	C634.953064,466.758667 633.258606,461.175293 634.654663,457.738922 
	C635.450684,455.779724 636.998718,455.501465 638.668518,455.449646 
	C640.315430,455.398621 640.660095,456.339752 639.731262,457.976959 
z"/>
<path fill="#000000" opacity="1.000000" stroke="none" 
	d="
M436.404877,347.416748 
	C434.121857,346.490753 432.569397,346.765808 431.668518,349.223969 
	C433.125214,351.717346 435.644623,350.904510 437.810608,351.000732 
	C441.669556,351.172089 444.852844,352.317169 445.136292,356.754456 
	C445.339996,359.943359 440.259460,364.337341 436.868164,364.171753 
	C434.440796,364.053223 433.405792,362.628174 433.517639,360.303589 
	C433.884186,360.051636 434.147736,359.714752 434.417450,359.709717 
	C436.600159,359.669128 440.159576,362.137360 440.348907,358.155090 
	C440.505615,354.859039 436.742310,356.362854 434.703003,356.187897 
	C431.001099,355.870239 428.116211,354.812042 427.792389,350.579620 
	C427.545776,347.356567 431.213531,343.438324 434.586121,343.018890 
	C436.141998,342.825378 437.177094,343.477631 437.870911,344.731598 
	C438.615112,346.076691 438.862915,347.326935 436.404877,347.416748 
z"/>
<path fill="#000000" opacity="1.000000" stroke="none" 
	d="
M452.213806,339.212158 
	C448.625519,338.036499 450.038361,341.878418 448.330475,342.583679 
	C444.599579,339.704407 444.781464,337.584564 448.974823,335.832123 
	C451.419617,334.810425 453.913818,333.907471 456.377075,332.929260 
	C460.777924,331.181610 461.733429,331.788788 462.651642,336.976929 
	C460.764954,338.818237 459.131195,335.042328 456.719971,337.213898 
	C458.570892,341.817108 458.877808,347.394867 464.360443,350.665192 
	C461.832306,353.160645 459.118469,353.823029 455.581604,354.074615 
	C457.503021,348.338135 454.240448,344.077820 452.213806,339.212158 
z"/>
<path fill="#000000" opacity="1.000000" stroke="none" 
	d="
M386.029297,672.861633 
	C387.985565,672.850708 389.483704,672.909607 390.971069,672.808899 
	C395.922882,672.473511 396.150726,675.320435 395.592041,678.867554 
	C392.797089,679.847229 393.016785,676.159668 390.077240,676.653320 
	C388.791046,681.729126 388.304474,686.916687 391.481323,692.261719 
	C388.639587,693.967896 385.904602,693.139954 382.652344,692.729797 
	C385.860260,687.171936 385.047058,681.956726 384.437103,677.007690 
	C381.535614,675.762634 381.382263,679.412354 379.281067,678.810791 
	C378.020630,673.285950 378.514313,672.820435 386.029297,672.861633 
z"/>
<path fill="#000000" opacity="1.000000" stroke="none" 
	d="
M353.163818,676.869080 
	C352.107391,682.233215 351.137665,687.410278 354.462921,692.342834 
	C351.765656,693.775635 349.262024,693.271729 346.251129,692.684814 
	C348.569885,687.255920 348.338470,682.035889 347.505035,677.044922 
	C344.628998,675.830322 344.413727,679.373352 342.347687,678.880310 
	C340.793060,674.456238 341.546661,673.063354 345.756012,672.906372 
	C348.742340,672.794983 351.735657,672.838562 354.725525,672.859863 
	C359.127808,672.891296 359.432190,675.328369 358.427582,678.607727 
	C355.922058,679.448547 355.564270,676.052307 353.163818,676.869080 
z"/>
<path fill="#000000" opacity="1.000000" stroke="none" 
	d="
M653.858521,684.141968 
	C650.894592,682.334961 649.138611,680.068359 650.255798,676.927185 
	C651.421448,673.649597 654.633301,672.916565 657.626465,672.787415 
	C660.989014,672.642395 663.056152,674.137695 661.865234,677.886719 
	C661.023438,678.336609 660.418701,678.291565 659.861755,677.796936 
	C658.368896,676.471069 656.593750,674.515625 654.975647,677.057007 
	C653.585754,679.239746 656.079590,680.073059 657.533081,681.034607 
	C658.223389,681.491333 659.022034,681.787109 659.700562,682.258179 
	C661.826172,683.733765 663.666077,685.463562 663.116821,688.372437 
	C662.622803,690.988525 660.593079,692.199341 658.262085,692.853394 
	C655.612854,693.596924 652.912781,693.699890 650.738831,691.677307 
	C649.341553,690.377258 649.543274,688.784668 650.492065,687.293335 
	C653.486694,686.987000 655.437683,692.966614 658.110413,688.913330 
	C659.815857,686.326843 655.907532,685.590393 653.858521,684.141968 
z"/>
<path fill="#000000" opacity="1.000000" stroke="none" 
	d="
M506.407318,329.093018 
	C506.488800,334.131226 505.122742,339.003265 508.679535,343.252258 
	C505.806305,344.913818 503.305023,344.411713 500.400177,343.686676 
	C502.510010,338.236786 502.368011,332.938782 501.264465,327.787933 
	C498.368225,327.393219 498.477142,330.301117 496.595673,330.311096 
	C494.586029,325.950531 495.416840,324.299774 499.913544,324.030090 
	C502.559967,323.871368 505.226807,324.039642 507.871063,323.861786 
	C512.498657,323.550507 513.033752,326.059601 512.405701,329.501617 
	C509.944336,331.022827 509.029633,325.184875 506.407318,329.093018 
z"/>
<path fill="#000000" opacity="1.000000" stroke="none" 
	d="
M538.559082,724.438599 
	C537.288513,722.484985 536.208984,720.847656 535.030823,719.060669 
	C537.123169,716.960510 539.408264,717.875916 541.634705,717.986572 
	C543.054016,720.169250 541.367493,723.610168 544.603699,724.895142 
	C547.114380,723.452942 546.831970,721.132507 546.239929,718.919861 
	C548.433716,717.211670 550.425659,717.535217 552.802429,718.518982 
	C550.608398,724.584045 542.228821,728.959900 548.069397,736.972534 
	C545.153198,738.725952 542.751892,738.008545 539.607422,737.370239 
	C542.900879,732.524719 541.791260,728.513855 538.559082,724.438599 
z"/>
<path fill="#000000" opacity="1.000000" stroke="none" 
	d="
M400.983276,391.040131 
	C402.213470,388.337006 403.360168,389.788849 404.398254,390.838654 
	C405.480988,391.933594 406.433807,393.204163 405.325745,394.795441 
	C403.080231,398.020203 400.766205,401.197235 398.227539,404.747589 
	C393.507904,399.484894 388.997009,395.226379 382.459717,393.773834 
	C382.633057,390.542267 384.601501,388.779785 387.230835,386.516449 
	C388.829102,393.102173 394.164825,394.653015 398.535828,397.411530 
	C400.970917,395.886169 401.709595,393.924072 400.983276,391.040131 
z"/>
<path fill="#000000" opacity="1.000000" stroke="none" 
	d="
M301.657776,677.166382 
	C301.430603,680.014221 301.277985,682.500122 301.319458,684.982849 
	C301.345703,686.555603 300.708679,688.561707 302.663696,689.403442 
	C304.533997,690.208557 306.190308,689.334595 307.622467,688.003113 
	C308.083557,687.574402 308.704254,687.317383 309.582825,686.778992 
	C311.357666,690.036926 310.890839,692.611328 307.327271,693.056885 
	C303.647217,693.517029 299.771637,693.738647 295.704498,692.629639 
	C297.150818,686.368347 297.792450,680.248596 295.570099,674.083374 
	C298.016571,672.080505 300.582428,673.096680 302.845276,673.083740 
	C304.193237,675.198425 302.251862,675.709045 301.657776,677.166382 
z"/>
<path fill="#000000" opacity="1.000000" stroke="none" 
	d="
M570.474243,689.036011 
	C570.522278,683.731567 571.731873,678.746460 569.182678,673.941345 
	C571.985474,672.438293 574.430176,672.408875 577.452698,673.725464 
	C574.648743,677.210266 575.022400,681.164124 575.114014,685.051880 
	C575.233032,690.100708 576.740479,690.876892 581.155212,688.265442 
	C581.716675,687.933411 582.298035,687.631897 582.887756,687.353455 
	C583.007812,687.296814 583.206909,687.407654 583.691406,687.507935 
	C584.587769,690.872620 584.059265,693.223328 579.772949,693.227722 
	C577.281067,693.230347 574.789062,693.228821 572.297363,693.204224 
	C569.290405,693.174500 568.879700,691.787964 570.474243,689.036011 
z"/>
</svg>